<svg width="32" height="32" viewBox="0 0 32 32" fill="none" xmlns="http://www.w3.org/2000/svg">
<path d="M2.28882e-05 10.7333C2.28882e-05 6.93673 2.28882e-05 5.03843 0.7506 3.5935C1.3831 2.37588 2.37591 1.38308 3.59353 0.750577C5.03845 0 6.93675 0 10.7334 0H21.2667C25.0633 0 26.9616 0 28.4065 0.750577C29.6241 1.38308 30.6169 2.37588 31.2494 3.5935C32 5.03843 32 6.93673 32 10.7333V21.2667C32 25.0633 32 26.9616 31.2494 28.4065C30.6169 29.6241 29.6241 30.6169 28.4065 31.2494C26.9616 32 25.0633 32 21.2667 32H10.7334C6.93675 32 5.03845 32 3.59353 31.2494C2.37591 30.6169 1.3831 29.6241 0.7506 28.4065C2.28882e-05 26.9616 2.28882e-05 25.0633 2.28882e-05 21.2667V10.7333Z" fill="url(#paint0_linear_908_365)"/>
<path d="M22.2222 20.4444L22.9334 15.9999H18.6667V12.8888C18.6667 11.6444 19.1111 10.6666 21.0667 10.6666H23.1111V6.57772C21.9556 6.39995 20.7111 6.22217 19.5556 6.22217C15.9111 6.22217 13.3334 8.44439 13.3334 12.4444V15.9999H9.33336V20.4444H13.3334V31.9999C15.1111 31.9999 16.8889 31.9999 18.6667 31.9999V20.4444H22.2222Z" fill="white"/>
<defs>
<linearGradient id="paint0_linear_908_365" x1="16" y1="31.065" x2="16" y2="0" gradientUnits="userSpaceOnUse">
<stop stop-color="#0062E0"/>
<stop offset="1" stop-color="#19AFFF"/>
</linearGradient>
</defs>
</svg>
