<svg width="32" height="32" viewBox="0 0 32 32" fill="none" xmlns="http://www.w3.org/2000/svg">
<path d="M4.57764e-05 10.7333C4.57764e-05 6.93673 4.57764e-05 5.03843 0.750623 3.5935C1.38313 2.37588 2.37593 1.38308 3.59355 0.750577C5.03847 0 6.93677 0 10.7334 0H21.2667C25.0633 0 26.9616 0 28.4065 0.750577C29.6242 1.38308 30.617 2.37588 31.2495 3.5935C32 5.03843 32 6.93673 32 10.7333V21.2667C32 25.0633 32 26.9616 31.2495 28.4065C30.617 29.6241 29.6242 30.6169 28.4065 31.2494C26.9616 32 25.0633 32 21.2667 32H10.7334C6.93677 32 5.03847 32 3.59355 31.2494C2.37593 30.6169 1.38313 29.6241 0.750623 28.4065C4.57764e-05 26.9616 4.57764e-05 25.0633 4.57764e-05 21.2667V10.7333Z" fill="#1EA1F2"/>
<path fill-rule="evenodd" clip-rule="evenodd" d="M24.882 12.1014C24.8897 12.3013 24.8923 12.5011 24.8923 12.701C24.8923 18.7606 20.6296 25.7561 12.8347 25.7561C10.4402 25.7561 8.2137 24.993 6.33774 23.6938C6.66935 23.7302 7.00613 23.7575 7.34808 23.7575C9.33342 23.7575 11.162 23.0215 12.6125 21.7859C10.758 21.7586 9.19217 20.4232 8.65212 18.6062C8.91138 18.6607 9.17837 18.688 9.45141 18.688C9.83642 18.688 10.2102 18.6336 10.5685 18.5246C8.62799 18.1066 7.16634 16.2534 7.16634 14.0275C7.16634 14.0003 7.16634 13.9912 7.16634 13.973C7.73826 14.3091 8.39285 14.518 9.08794 14.5452C7.94927 13.7185 7.20077 12.3104 7.20077 10.7205C7.20077 9.88469 7.40921 9.09426 7.77614 8.41289C9.8657 11.1929 12.9897 13.019 16.5117 13.2098C16.4393 12.8736 16.4023 12.5194 16.4023 12.1651C16.4023 9.63039 18.2998 7.57715 20.6408 7.57715C21.8596 7.57715 22.9604 8.13141 23.733 9.02173C24.7002 8.82187 25.6064 8.44032 26.4263 7.9134C26.1085 8.98542 25.4375 9.88464 24.5607 10.4479C25.4186 10.3389 26.2369 10.0938 26.9957 9.73039C26.4263 10.648 25.7097 11.4564 24.882 12.1014Z" fill="white"/>
</svg>
