<svg width="32" height="32" viewBox="0 0 32 32" fill="none" xmlns="http://www.w3.org/2000/svg">
<path d="M0 10.7335C0 6.93685 0 5.03855 0.750577 3.59363C1.38308 2.376 2.37588 1.3832 3.5935 0.750699C5.03843 0.00012207 6.93673 0.00012207 10.7333 0.00012207H21.2667C25.0633 0.00012207 26.9616 0.00012207 28.4065 0.750699C29.6241 1.3832 30.6169 2.376 31.2494 3.59363C32 5.03855 32 6.93685 32 10.7335V21.2668C32 25.0634 32 26.9617 31.2494 28.4066C30.6169 29.6242 29.6241 30.617 28.4065 31.2495C26.9616 32.0001 25.0633 32.0001 21.2667 32.0001H10.7333C6.93673 32.0001 5.03843 32.0001 3.5935 31.2495C2.37588 30.617 1.38308 29.6242 0.750577 28.4066C0 26.9617 0 25.0634 0 21.2668V10.7335Z" fill="url(#paint0_linear_908_359)"/>
<path fill-rule="evenodd" clip-rule="evenodd" d="M16.9292 4.39518C19.7617 4.53439 22.401 5.70242 24.4169 7.71966C26.5672 9.87129 27.7508 12.7314 27.7496 15.773C27.7471 22.0495 22.6374 27.1564 16.3605 27.1564H16.3557C14.4495 27.1558 12.5766 26.6778 10.9131 25.7709L4.87545 27.3538L6.49126 21.4549C5.49458 19.7286 4.97013 17.7703 4.97095 15.7639C4.97347 9.48751 10.0827 4.3811 16.3603 4.3811L16.9292 4.39518ZM11.1928 23.71L11.5385 23.9151C12.9919 24.7772 14.6579 25.2333 16.3566 25.2339H16.3604C21.578 25.2339 25.8245 20.9894 25.8266 15.7723C25.8276 13.2442 24.8439 10.867 23.0567 9.0786C21.2694 7.2901 18.8926 6.30459 16.3642 6.30377C11.1426 6.30377 6.89599 10.5479 6.89391 15.7646C6.8932 17.5524 7.39365 19.2935 8.34124 20.7999L8.56632 21.1579L7.61001 24.6494L11.1928 23.71ZM22.0982 18.4799C22.0271 18.3612 21.8374 18.2901 21.5528 18.1477C21.2683 18.0053 19.8691 17.3172 19.6083 17.2222C19.3474 17.1274 19.1577 17.08 18.968 17.3646C18.7783 17.6493 18.233 18.2901 18.0669 18.4799C17.9009 18.6697 17.7349 18.6935 17.4504 18.5511C17.1658 18.4088 16.2489 18.1084 15.1619 17.1393C14.3159 16.3851 13.7447 15.4537 13.5787 15.1689C13.4128 14.8842 13.561 14.7302 13.7035 14.5884C13.8315 14.4609 13.9881 14.2562 14.1304 14.0901C14.2727 13.9241 14.3201 13.8053 14.415 13.6156C14.5098 13.4257 14.4624 13.2597 14.3913 13.1173C14.3201 12.9749 13.751 11.5748 13.5138 11.0053C13.2828 10.4507 13.0482 10.5258 12.8735 10.517C12.7077 10.5088 12.5178 10.507 12.3281 10.507C12.1384 10.507 11.8301 10.5781 11.5692 10.8629C11.3084 11.1476 10.5732 11.8358 10.5732 13.2358C10.5732 14.6359 11.593 15.9883 11.7353 16.1782C11.8775 16.3681 13.7419 19.241 16.5967 20.4731C17.2756 20.7662 17.8057 20.9412 18.219 21.0723C18.9007 21.2888 19.5211 21.2583 20.0114 21.185C20.5582 21.1033 21.6951 20.4969 21.9323 19.8326C22.1694 19.168 22.1694 18.5985 22.0982 18.4799Z" fill="white"/>
<defs>
<linearGradient id="paint0_linear_908_359" x1="16" y1="32.0001" x2="16" y2="0.00012207" gradientUnits="userSpaceOnUse">
<stop stop-color="#25CF43"/>
<stop offset="1" stop-color="#61FD7D"/>
</linearGradient>
</defs>
</svg>
