<svg width="32" height="32" viewBox="0 0 32 32" fill="none" xmlns="http://www.w3.org/2000/svg">
<path d="M0 10.7335C0 6.93685 0 5.03855 0.750577 3.59363C1.38308 2.376 2.37588 1.3832 3.5935 0.750699C5.03843 0.00012207 6.93673 0.00012207 10.7333 0.00012207H21.2667C25.0633 0.00012207 26.9616 0.00012207 28.4065 0.750699C29.6241 1.3832 30.6169 2.376 31.2494 3.59363C32 5.03855 32 6.93685 32 10.7335V21.2668C32 25.0634 32 26.9617 31.2494 28.4066C30.6169 29.6242 29.6241 30.617 28.4065 31.2495C26.9616 32.0001 25.0633 32.0001 21.2667 32.0001H10.7333C6.93673 32.0001 5.03843 32.0001 3.5935 31.2495C2.37588 30.617 1.38308 29.6242 0.750577 28.4066C0 26.9617 0 25.0634 0 21.2668V10.7335Z" fill="#FF0000"/>
<path fill-rule="evenodd" clip-rule="evenodd" d="M25.3904 7.8475C26.4184 8.12427 27.2289 8.93481 27.5057 9.96281C28.0197 11.8409 27.9999 15.7552 27.9999 15.7552C27.9999 15.7552 27.9999 19.6498 27.5057 21.5278C27.2289 22.5558 26.4184 23.3664 25.3904 23.6431C23.5123 24.1374 15.9999 24.1374 15.9999 24.1374C15.9999 24.1374 8.50739 24.1374 6.60954 23.6234C5.58154 23.3466 4.771 22.5361 4.49423 21.5081C4 19.6498 4 15.7354 4 15.7354C4 15.7354 4 11.8409 4.49423 9.96281C4.771 8.93481 5.60131 8.1045 6.60954 7.82773C8.48763 7.3335 15.9999 7.3335 15.9999 7.3335C15.9999 7.3335 23.5123 7.3335 25.3904 7.8475ZM19.8549 15.5982L13.6078 19.1962V12.0002L19.8549 15.5982Z" fill="white"/>
</svg>
